<svg width="1900" height="1900" viewBox="0 0 1900 1900" fill="none" xmlns="http://www.w3.org/2000/svg">
<rect width="1900" height="1900" fill="white"/>
<rect width="1900" height="1900" fill="#FFD1E5" fill-opacity="0.6"/>
<path d="M512.812 413.428C562.239 362.702 650.788 380.965 682.583 442.965C697.981 472.991 700.505 514.845 674.478 566.115C648.996 616.311 596.179 675.22 502.068 738.636C407.959 675.22 355.142 616.31 329.66 566.115C303.633 514.845 306.156 472.991 321.555 442.965C353.35 380.965 441.899 362.701 491.325 413.428L502.068 424.454L512.812 413.428Z" fill="#FFBDDA" stroke="#FFADD1" stroke-width="30"/>
<ellipse cx="35.4253" cy="47.8176" rx="35.4253" ry="47.8176" transform="matrix(0.988436 0.151642 -0.151546 0.98845 370.945 431.638)" fill="#FFD1E5"/>
<ellipse cx="24.7562" cy="29.8846" rx="24.7562" ry="29.8846" transform="matrix(0.911285 -0.411777 0.411556 0.911384 388.044 562.728)" fill="#FFD1E5"/>
<path d="M961.105 801.094C1010.53 750.368 1099.08 768.632 1130.88 830.631C1146.27 860.658 1148.8 902.512 1122.77 953.782C1097.29 1003.98 1044.47 1062.89 950.361 1126.3C856.251 1062.89 803.435 1003.98 777.953 953.782C751.926 902.512 754.449 860.658 769.848 830.631C801.643 768.632 890.192 750.368 939.618 801.094L950.361 812.121L961.105 801.094Z" fill="#FFBDDA" stroke="#FFADD1" stroke-width="30"/>
<ellipse cx="35.4253" cy="47.8176" rx="35.4253" ry="47.8176" transform="matrix(0.988436 0.151642 -0.151546 0.98845 819.238 819.305)" fill="#FFD1E5"/>
<ellipse cx="24.7562" cy="29.8846" rx="24.7562" ry="29.8846" transform="matrix(0.911285 -0.411777 0.411556 0.911384 836.337 950.395)" fill="#FFD1E5"/>
<path d="M1409.4 1188.76C1458.83 1138.03 1547.37 1156.3 1579.17 1218.3C1594.57 1248.32 1597.09 1290.18 1571.06 1341.45C1545.58 1391.64 1492.76 1450.55 1398.65 1513.97C1304.54 1450.55 1251.73 1391.64 1226.25 1341.45C1200.22 1290.18 1202.74 1248.32 1218.14 1218.3C1249.94 1156.3 1338.48 1138.03 1387.91 1188.76L1398.65 1199.79L1409.4 1188.76Z" fill="#FFBDDA" stroke="#FFADD1" stroke-width="30"/>
<ellipse cx="35.4253" cy="47.8176" rx="35.4253" ry="47.8176" transform="matrix(0.988436 0.151642 -0.151546 0.98845 1267.53 1206.97)" fill="#FFD1E5"/>
<ellipse cx="24.7562" cy="29.8846" rx="24.7562" ry="29.8846" transform="matrix(0.911285 -0.411777 0.411556 0.911384 1284.63 1338.06)" fill="#FFD1E5"/>
</svg>
